<?xml version="1.0" encoding="utf-8"?>
<!-- Generator: Adobe Illustrator 16.0.0, SVG Export Plug-In . SVG Version: 6.00 Build 0)  -->
<!DOCTYPE svg PUBLIC "-//W3C//DTD SVG 1.1//EN" "http://www.w3.org/Graphics/SVG/1.1/DTD/svg11.dtd">
<svg version="1.1" id="Layer_1" xmlns="http://www.w3.org/2000/svg" xmlns:xlink="http://www.w3.org/1999/xlink" x="0px" y="0px"
	 width="371px" height="165.021px" viewBox="0 0 371 165.021" enable-background="new 0 0 371 165.021" xml:space="preserve">
<g>
	<path fill="#2D2C86" d="M261.819,88.181c-0.914,5.842-3.929,8.901-7.548,8.901c-2.3,0-3.621-1.607-3.229-4.104l1.273-7.924
		c0.488-2.935,2.251-5.231,5.379-5.231C261.166,79.822,262.757,82.187,261.819,88.181z M249.43,99.822
		c0.488,0,1.661,2.053,5.477,2.053c8.119,0,12.763-5.868,14.036-13.448c1.612-9.337-2.935-13.591-8.657-13.591
		c-2.689,0-4.7,0.241-6.167,1.025l2.202-12.862h-6.745l-6.697,38.415h5.084c0,0,0.735-1.592,1.516-1.592H249.43z M321.183,83.441
		c1.03-5.822-1.123-8.655-7.429-8.655c-4.696,0-6.544,2.066-8.304,3.83l0.172-3.242l-6.244,0.039l-0.485,4.801l-3.617,21.2h6.837
		l2.204-13.766c0.78-4.745,4.059-8.364,7.137-8.364c3.425,0,3.382,1.956,2.846,4.938l-2.98,17.192h6.785L321.183,83.441z
		 M349.696,74.836h-7.969l-9.162,9.712l-0.131-0.022l3.666-21.502h-6.647l-6.702,38.391h6.749l0.688-3.84l1.368-8.414
		c3.566,0,5.575,0.394,7.14,7.483l1.074,4.771h6.896c0,0-1.712-7.261-2.837-10.098c-1.176-2.985-2.459-4.954-5.196-5.492
		L349.696,74.836z M153.738,84.261c4.938-1.075,7.503-5.075,8.187-7.664c1.758-7.142-1.418-12.719-10.516-12.618l-10.424-0.013
		l-6.543,37.448h6.797l2.688-15.039c6.265-0.172,7.028,1.354,8.212,8.655l1.073,6.384h7.048c-0.83-3.862-1.369-7.507-2.051-10.445
		c-0.736-3.082-1.878-5.489-4.813-6.632L153.738,84.261z M155.113,75.339c-0.589,3.32-3.163,5.661-6.343,5.661h-4.01l2.078-11.821
		l3.643-0.019C154.808,69.16,155.65,72.009,155.113,75.339z M185.839,82.416c0.978-5.674-2.056-7.63-8.169-7.63
		c-7.626,0-10.954,3.621-10.954,3.621l2.348,3.959c0,0,2.468-2.884,7.387-2.884c2.747,0,2.804,1.393,2.541,2.884l-0.538,3.372
		c-9.828-0.246-14.866,1.857-15.989,8.314c-0.931,5.282,3.029,7.828,7.479,7.828c2.297,0,4.159-0.346,6.407-2.304
		c0.44,1.273,1.221,1.945,2.103,2.091c1.419,0.297,3.864-0.037,4.597-0.577c-0.05-0.782,0-2.781,0.831-7.476L185.839,82.416z
		 M177.769,89.31c-1.09,7.728-2.116,8.498-5.838,8.498c-2.543,0-3.49-1.743-3.056-4.031C169.467,90.666,171.817,89.31,177.769,89.31
		z M293.674,82.416c0.975-5.674-2.057-7.63-8.17-7.63c-7.627,0-10.953,3.621-10.953,3.621l2.347,3.959c0,0,2.468-2.884,7.386-2.884
		c2.746,0,2.806,1.393,2.54,2.884l-0.537,3.372c-9.829-0.246-14.865,1.857-15.989,8.314c-0.929,5.282,3.031,7.828,7.479,7.828
		c2.298,0,4.159-0.346,6.408-2.304c0.44,1.273,1.221,1.945,2.102,2.091c1.419,0.297,3.863-0.037,4.598-0.577
		c-0.049-0.782,0-2.781,0.83-7.476L293.674,82.416z M285.603,89.31c-1.09,7.728-2.116,8.498-5.838,8.498
		c-2.542,0-3.49-1.743-3.054-4.031C277.299,90.666,279.65,89.31,285.603,89.31z M199.482,101.875
		c8.118,0,12.763-5.868,14.032-13.448c1.618-9.337-2.931-13.591-8.654-13.591c-2.688,0-4.631,0.241-6.146,1.025l2.202-12.862h-6.763
		l-6.701,38.415h5.087c0,0,0.733-1.592,1.469-1.592C194.493,99.822,195.669,101.875,199.482,101.875z M202.315,79.822
		c3.477,0,4.949,2.348,4.131,8.358c-0.84,6.146-3.933,8.901-7.6,8.901c-2.301,0-3.618-1.607-3.178-4.104l1.271-7.924
		c0.487-2.935,2.248-5.231,5.33-5.231H202.315z M216.364,90.516c1.047-9.779,5.454-15.827,15.932-15.827
		c7.784,0,10.357,5.939,9.312,12.319c-1.674,10.21-5.645,15.015-15.622,15.015C219.527,102.022,215.699,96.757,216.364,90.516z
		 M234.514,87.482c0.501-2.701,1.03-7.952-3.622-7.952c-3.127,0-6.049,2.119-7.359,9.556c-0.801,4.535,0.076,8.181,3.697,8.181
		C229.881,97.267,233.109,95.079,234.514,87.482z"/>
	<g>
		<linearGradient id="SVGID_1_" gradientUnits="userSpaceOnUse" x1="19.5781" y1="126.2236" x2="115.1035" y2="126.2236">
			<stop  offset="0" style="stop-color:#CA581A"/>
			<stop  offset="1" style="stop-color:#6E2E2B"/>
		</linearGradient>
		<path fill="url(#SVGID_1_)" d="M107.235,102.992c2.018,2.022,3.661,4.223,4.825,6.586c3.713,7.541,2.349,15.859-5.044,23.113
			c-8.476,8.311-22.9,13.424-39.648,13.424c-16.75,0-31.174-5.113-39.65-13.424c-7.393-7.254-8.755-15.572-5.046-23.113
			c1.165-2.363,2.789-4.546,4.808-6.59c-2.366,2.286-4.233,4.309-5.93,7.705c-3.62,7.244-2.463,17.601,5.181,25.104
			c8.688,8.526,22.272,13.661,40.774,13.661c18.552,0,32.138-5.289,40.464-13.661c8.165-8.21,8.48-18.896,5.133-25.336
			C111.709,107.781,109.835,105.316,107.235,102.992z"/>
	</g>
	<g>
		<defs>
			<path id="SVGID_2_" d="M93.639,94.264c-7.85-3.252-16.992-4.927-26.271-4.927c-9.279,0-18.422,1.675-26.271,4.927
				c-8.591,3.564-15.238,8.851-18.423,15.314c-3.709,7.541-2.347,15.859,5.046,23.113c8.476,8.311,22.899,13.424,39.65,13.424
				c16.749,0,31.172-5.113,39.648-13.424c7.393-7.254,8.757-15.572,5.044-23.113C108.878,103.114,102.229,97.828,93.639,94.264z"/>
		</defs>
		<use xlink:href="#SVGID_2_"  overflow="visible" fill="#EE7203"/>
		<clipPath id="SVGID_3_">
			<use xlink:href="#SVGID_2_"  overflow="visible"/>
		</clipPath>
	</g>
	<g>
		<linearGradient id="SVGID_4_" gradientUnits="userSpaceOnUse" x1="11.6992" y1="117.9131" x2="70.7396" y2="107.5027">
			<stop  offset="0" style="stop-color:#FFE07D"/>
			<stop  offset="1" style="stop-color:#EE7203"/>
		</linearGradient>
		<path fill="url(#SVGID_4_)" d="M68.925,97.899c-1.546-3.167-1.231-6.039-0.915-8.558c-0.214-0.002-0.431-0.002-0.645-0.002
			c-9.279,0-18.422,1.672-26.271,4.926c-8.591,3.564-15.237,8.851-18.422,15.317c-3.711,7.538-2.348,15.855,5.045,23.109
			c0.518,0.508,1.061,1.004,1.622,1.49C60.539,132.36,76.84,114.104,68.925,97.899z"/>
	</g>
	<path fill-rule="evenodd" clip-rule="evenodd" fill="#FFFFFF" d="M47.274,98.436c5.798,1.474,11.31,3.228,16.917,5.301
		c1.111-3.336,2.29-6.648,3.638-9.898c1.347,3.246,2.525,6.559,3.636,9.888c5.606-2.066,11.019-3.749,16.817-5.219
		c-4.078,2.558-7.682,5.199-11.46,8.172c7.664,0.975,14.835,2.244,22.387,3.878c-7.525-0.164-14.609,0.103-22.12,0.584
		c5.297,4.489,9.836,8.834,14.76,13.721c-6.75-3.854-13.087-7.091-20.122-10.416c-1.365,5.882-2.651,11.781-3.894,17.689
		c-1.244-5.906-2.385-11.527-3.749-17.403c-7.034,3.318-13.431,6.484-20.405,10.183c4.93-4.888,9.597-9.125,14.899-13.612
		c-7.514-0.484-14.718-0.584-22.412-0.695c7.545-1.63,15.004-2.903,22.664-3.879C55.055,103.755,51.347,100.995,47.274,98.436z
		 M67.833,108.724c-0.003-4.333-0.003-8.666-0.004-12.996c-1.318,3.61-2.48,7.278-3.577,10.96
		C65.453,107.354,66.644,108.033,67.833,108.724z M50.654,99.868c4.643,2.05,9.167,4.352,13.597,6.82
		c-1.102,0.112-2.202,0.229-3.302,0.354C57.613,104.517,54.194,102.104,50.654,99.868z M67.833,108.724
		c8.947,0.017,17.886,0.461,26.787,1.35c-7.813-1.41-15.404-2.49-23.237-3.403C70.19,107.342,69.008,108.028,67.833,108.724z
		 M84.996,99.864c-4.649,2.044-9.176,4.344-13.614,6.807c-0.181-0.604-0.36-1.212-0.544-1.82
		C75.489,103.001,80.204,101.319,84.996,99.864z M67.36,108.725c0.19,6.273,0.419,12.929,0.475,19.003
		c1.167-5.62,2.38-11.226,3.675-16.817C70.29,110.17,68.594,109.444,67.36,108.725z M87.549,121.659
		c-5.219-3.767-10.557-7.366-16.039-10.749c1.121-0.088,2.242-0.174,3.365-0.247C79.228,114.182,83.441,117.863,87.549,121.659z
		 M67.833,108.724c-9.008,0.123-16.038,0.531-24.818,1.287c7.58,0.024,13.471,0.311,21.17,0.92
		C65.392,110.182,66.608,109.445,67.833,108.724z M48.126,121.664c5.225-3.764,10.568-7.358,16.058-10.733
		c0.162,0.697,0.321,1.397,0.481,2.098C59.055,115.722,53.544,118.611,48.126,121.664z"/>
	<path fill-rule="evenodd" clip-rule="evenodd" fill="#C51A1B" d="M67.829,94.057c1.347,3.247,2.525,6.556,3.636,9.887
		c5.422-1.998,10.639-3.624,16.238-5.066c0.194-0.126,0.385-0.25,0.579-0.371c-5.798,1.47-11.211,3.152-16.817,5.219
		c-1.111-3.33-2.29-6.642-3.636-9.888c-1.348,3.25-2.527,6.562-3.638,9.898c-5.607-2.073-11.119-3.827-16.917-5.301
		c0.193,0.122,0.385,0.248,0.577,0.37c5.6,1.447,10.919,3.147,16.34,5.147C65.302,100.62,66.48,97.307,67.829,94.057z"/>
	<path fill-rule="evenodd" clip-rule="evenodd" fill="#C8411B" d="M58.559,111.303c-5.216,4.427-10.026,8.796-14.88,13.612
		c0.175-0.101,0.601-0.342,0.773-0.441c4.768-4.702,8.989-8.516,14.107-12.841V111.303z"/>
	<polygon fill-rule="evenodd" clip-rule="evenodd" fill="#C00D0D" points="67.833,108.94 67.833,108.94 67.833,108.94 	"/>
	<polygon fill-rule="evenodd" clip-rule="evenodd" fill="#C00D0D" points="67.833,108.724 67.833,108.724 67.833,108.724 	"/>
	<path fill-rule="evenodd" clip-rule="evenodd" fill="#C00D0D" d="M67.833,108.724L67.833,108.724c0,0.072,0,0.145,0,0.216l0,0
		C67.833,108.868,67.833,108.795,67.833,108.724z"/>
	<path fill-rule="evenodd" clip-rule="evenodd" fill="#C00D0D" d="M67.645,108.833c-0.06,0.037-0.121,0.073-0.182,0.109
		c-1.098,0.652-2.192,1.315-3.279,1.988l0.049,0.213c1.195-0.74,2.391-1.445,3.599-2.16v-0.26
		C67.769,108.761,67.708,108.796,67.645,108.833z"/>
	<polygon fill-rule="evenodd" clip-rule="evenodd" fill="#C00D0D" points="67.833,108.94 67.833,108.94 67.833,108.94 	"/>
	<polygon fill-rule="evenodd" clip-rule="evenodd" fill="#C00D0D" points="67.833,108.724 67.833,108.724 67.833,108.724 	"/>
	<path fill-rule="evenodd" clip-rule="evenodd" fill="#C8411B" d="M64.251,106.688c-0.11,0.012-0.222,0.023-0.334,0.036
		c-0.99,0.101-1.978,0.205-2.968,0.318c-3.336-2.525-6.755-4.938-10.295-7.174v0.262c3.54,2.237,6.958,4.649,10.295,7.175
		c1.1-0.126,2.2-0.242,3.302-0.353c1.074,0.595,2.084,1.158,3.147,1.773c0.125,0,0.307-0.001,0.434-0.001
		C66.663,108.043,65.433,107.344,64.251,106.688z"/>
	<path fill-rule="evenodd" clip-rule="evenodd" fill="#C8411B" d="M48.126,121.972c5.418-3.054,10.929-5.946,16.539-8.637v-0.307
		c-5.61,2.693-11.121,5.583-16.539,8.635V121.972z"/>
	<path fill-rule="evenodd" clip-rule="evenodd" fill="#A81815" d="M71.51,110.91c-1.278,5.527-2.521,11.264-3.675,16.817v0.22
		c1.167-5.619,2.371-11.19,3.666-16.775c3.738,2.305,9.17,5.852,16.049,10.814v-0.328C82.331,117.892,76.992,114.293,71.51,110.91z"
		/>
	<path fill-rule="evenodd" clip-rule="evenodd" fill="#A81815" d="M77.328,111.349l-0.239-0.207v0.35
		c5.112,4.33,9.194,8.209,13.957,12.914c0.173,0.099,0.629,0.36,0.803,0.457C86.842,119.894,82.372,115.632,77.328,111.349z"/>
	<path fill-rule="evenodd" clip-rule="evenodd" fill="#C8411B" d="M58.59,106.76c-7.579,0.974-14.958,2.235-22.424,3.848
		c0.366,0,0.809,0.025,1.183,0.021c7.176-1.522,14.2-2.71,21.481-3.639v-0.261L58.59,106.76z"/>
	<path fill-rule="evenodd" clip-rule="evenodd" fill="#C8411B" d="M64.184,110.931c-7.055-0.61-14.078-0.959-21.154-0.905v0.217
		c6.981-0.051,13.907,0.29,20.868,0.882C63.994,111.059,64.088,110.993,64.184,110.931"/>
	<path fill-rule="evenodd" clip-rule="evenodd" fill="#A81815" d="M76.822,106.68c7.664,0.975,14.835,2.244,22.387,3.878
		c-0.376-0.008-0.888-0.018-1.262-0.025c-7.185-1.52-13.841-2.662-21.125-3.591V106.68z"/>
	<path fill-rule="evenodd" clip-rule="evenodd" fill="#A81815" d="M67.833,108.724c8.947,0.017,17.886,0.461,26.787,1.35v0.24
		c-8.777-0.877-17.559-1.323-26.38-1.354c-0.064-0.038-0.158-0.09-0.221-0.127C67.955,108.796,67.894,108.759,67.833,108.724
		c0.123,0,0.247,0.001,0.371,0.001"/>
	<path fill-rule="evenodd" clip-rule="evenodd" fill="#A81815" d="M71.382,106.671c0.109,0.012,0.211,0.029,0.322,0.04
		c4.332-2.397,8.751-4.632,13.285-6.627v-0.219C80.338,101.912,75.82,104.208,71.382,106.671"/>
	<path fill-rule="evenodd" clip-rule="evenodd" fill="#C00D0D" d="M71.382,106.671c-0.181-0.604-0.36-1.212-0.544-1.82v0.217
		c0.164,0.544,0.328,1.091,0.489,1.635C71.344,106.693,71.363,106.681,71.382,106.671"/>
	<path fill-rule="evenodd" clip-rule="evenodd" fill="#FFFFFF" d="M68.718,144.391c-0.262,0.196-0.624,0.394-0.885,0.589
		c-0.267-0.195-0.633-0.393-0.9-0.589c0.005-2.434-0.007-4.868-0.001-7.299c0.262-0.181,0.64-0.358,0.902-0.538
		c0.257,0.18,0.612,0.355,0.871,0.538C68.71,139.523,68.715,141.957,68.718,144.391z"/>
	<path fill-rule="evenodd" clip-rule="evenodd" fill="#FFFFFF" d="M25.378,126.731c-0.143,0.277-0.284,0.55-0.426,0.826
		c0.267,0.104,0.781,0.267,1.011,0.362c2.552-1.364,5.076-2.724,7.584-4.036c0.097-0.387,0.155-0.598,0.261-0.888
		c-0.258-0.068-0.515-0.134-0.772-0.202C30.473,124.064,27.92,125.377,25.378,126.731z"/>
	<path fill-rule="evenodd" clip-rule="evenodd" fill="#FFFFFF" d="M23.5,111.754c-0.233,0.186-0.465,0.372-0.7,0.559
		c0.129,0.169,0.271,0.371,0.387,0.532c2.386-0.34,4.771-0.632,7.159-0.874c0.222-0.216,0.491-0.473,0.701-0.672
		c-0.139-0.144-0.279-0.287-0.421-0.428C28.252,111.115,25.875,111.409,23.5,111.754z"/>
	<path fill-rule="evenodd" clip-rule="evenodd" fill="#FFFFFF" d="M32.658,99.665c-0.242,0.104-0.483,0.208-0.724,0.312
		c0.023,0.144,0.049,0.407,0.071,0.55c1.757,0.248,3.511,0.544,5.261,0.884c0.225-0.131,0.53-0.311,0.741-0.424
		c-0.031-0.153-0.062-0.308-0.093-0.458C36.165,100.196,34.412,99.907,32.658,99.665z"/>
	<path fill-rule="evenodd" clip-rule="evenodd" fill="#FFFFFF" d="M86.348,92.221c0.222,0.002,0.446,0.005,0.667,0.007
		c0.091,0.088,0.179,0.177,0.268,0.265c-0.92,0.582-1.824,1.189-2.713,1.816c-0.234,0.003-0.468,0.005-0.702,0.008
		c-0.087-0.096-0.172-0.196-0.258-0.292C84.509,93.402,85.42,92.797,86.348,92.221z"/>
	<path fill-rule="evenodd" clip-rule="evenodd" fill="#FFFFFF" d="M67.203,89.687c0.167-0.05,0.335-0.103,0.503-0.154
		c0.17,0.051,0.34,0.104,0.512,0.154c0.004,0.715,0.011,1.431,0.016,2.148c-0.176,0.061-0.353,0.118-0.529,0.179
		c-0.174-0.061-0.348-0.118-0.521-0.179C67.188,91.12,67.195,90.402,67.203,89.687z"/>
	<path fill-rule="evenodd" clip-rule="evenodd" fill="#FFFFFF" d="M47.981,92.538c0.086-0.088,0.28-0.242,0.365-0.33
		c0.227-0.002,0.451-0.007,0.676-0.01c0.928,0.577,1.837,1.179,2.737,1.801c-0.089,0.101-0.18,0.199-0.267,0.297
		c-0.232-0.005-0.568,0.061-0.8,0.058C49.802,93.727,48.9,93.117,47.981,92.538z"/>
	<path fill-rule="evenodd" clip-rule="evenodd" fill="#FFFFFF" d="M42.385,139.932c-0.36,0.085-0.822,0.084-1.181,0.173
		c-0.079-0.256-0.258-0.512-0.336-0.768c1.782-2.129,3.585-4.242,5.416-6.34c0.355-0.077,0.812-0.152,1.167-0.228
		c0.083,0.218,0.248,0.59,0.344,0.797C45.969,135.672,44.167,137.793,42.385,139.932z"/>
	<path fill-rule="evenodd" clip-rule="evenodd" fill="#FFFFFF" d="M109.688,126.731c0.143,0.277,0.286,0.55,0.427,0.826
		c-0.267,0.104-0.78,0.267-1.01,0.362c-2.553-1.364-5.076-2.724-7.587-4.036c-0.096-0.387-0.153-0.598-0.259-0.888
		c0.257-0.068,0.514-0.134,0.773-0.202C104.595,124.064,107.145,125.377,109.688,126.731z"/>
	<path fill-rule="evenodd" clip-rule="evenodd" fill="#FFFFFF" d="M111.568,111.754c0.231,0.186,0.464,0.372,0.697,0.559
		c-0.129,0.169-0.271,0.371-0.387,0.532c-2.385-0.34-4.771-0.632-7.159-0.874c-0.222-0.216-0.491-0.473-0.703-0.672
		c0.142-0.144,0.28-0.287,0.421-0.428C106.814,111.115,109.191,111.409,111.568,111.754z"/>
	<path fill-rule="evenodd" clip-rule="evenodd" fill="#FFFFFF" d="M102.41,99.665c0.239,0.104,0.48,0.208,0.723,0.312
		c-0.023,0.144-0.049,0.407-0.072,0.55c-1.757,0.248-3.51,0.544-5.26,0.884c-0.226-0.131-0.529-0.311-0.741-0.424
		c0.03-0.153,0.061-0.308,0.093-0.458C98.901,100.196,100.654,99.907,102.41,99.665z"/>
	<path fill-rule="evenodd" clip-rule="evenodd" fill="#FFFFFF" d="M92.682,139.932c0.293,0.044,0.819,0.115,1.182,0.173
		c0.116-0.251,0.23-0.506,0.336-0.768c-1.781-2.129-3.587-4.242-5.416-6.34c-0.355-0.077-0.814-0.152-1.169-0.228
		c-0.083,0.218-0.247,0.59-0.344,0.797C89.099,135.672,90.899,137.793,92.682,139.932z"/>
	<g>
		<path fill-rule="evenodd" clip-rule="evenodd" fill="#CA581A" d="M25.352,127.165c-0.066,0.127-0.173,0.328-0.24,0.453
			c-0.053-0.023-0.095-0.035-0.16-0.061c0.142-0.276,0.284-0.549,0.426-0.826c2.542-1.354,5.094-2.667,7.658-3.937
			c0.258,0.067,0.515,0.134,0.772,0.202c-0.055,0.155-0.093,0.295-0.14,0.435c-0.208-0.06-0.487-0.104-0.692-0.158
			C30.414,124.547,27.895,125.811,25.352,127.165z"/>
	</g>
	<g>
		<path fill-rule="evenodd" clip-rule="evenodd" fill="#CA581A" d="M23.579,112.084c-0.13,0.103-0.481,0.357-0.61,0.461
			c-0.07-0.088-0.08-0.116-0.168-0.232c0.234-0.187,0.466-0.373,0.7-0.559c2.375-0.345,4.752-0.64,7.127-0.884
			c0.142,0.141,0.282,0.285,0.421,0.428c-0.048,0.043-0.092,0.088-0.142,0.141c-0.064-0.066-0.196-0.187-0.249-0.234
			C28.281,111.449,25.954,111.739,23.579,112.084z"/>
	</g>
	<g>
		<path fill-rule="evenodd" clip-rule="evenodd" fill="#CA581A" d="M31.982,100.347c-0.019-0.142-0.026-0.208-0.048-0.37
			c0.241-0.104,0.482-0.208,0.724-0.312c1.754,0.242,3.507,0.532,5.256,0.864c0.032,0.151,0.062,0.306,0.093,0.458
			c-0.041,0.022-3.591-0.7-5.336-0.937C32.481,100.129,32.172,100.264,31.982,100.347z"/>
	</g>
	<g>
		<path fill-rule="evenodd" clip-rule="evenodd" fill="#A81815" d="M87.015,92.601c0.014,0.013,0.026,0.025,0.041,0.038
			c0.075-0.048,0.151-0.098,0.227-0.146c-0.088-0.088-0.177-0.176-0.268-0.265c-0.221-0.002-0.445-0.005-0.667-0.007
			c-0.928,0.577-1.838,1.181-2.738,1.804c0.068,0.078,0.137,0.156,0.205,0.231c0.833-0.572,1.677-1.128,2.533-1.662
			C86.57,92.596,86.794,92.599,87.015,92.601z"/>
	</g>
	<g>
		<path fill-rule="evenodd" clip-rule="evenodd" fill="#B6110E" d="M67.203,90.06c0.167-0.053,0.335-0.103,0.503-0.154
			c0.17,0.051,0.34,0.101,0.512,0.154v-0.373c-0.172-0.05-0.342-0.103-0.512-0.154c-0.168,0.051-0.336,0.104-0.503,0.154V90.06z"/>
	</g>
	<g>
		<path fill-rule="evenodd" clip-rule="evenodd" fill="#C8411B" d="M49.041,92.523c0.855,0.532,1.68,1.136,2.508,1.708
			c0.071-0.075,0.139-0.153,0.21-0.231c-0.899-0.622-1.809-1.224-2.737-1.801c-0.226,0.003-0.449,0.008-0.676,0.01
			c-0.085,0.088-0.285,0.242-0.371,0.33c0.073,0.048,0.149,0.096,0.223,0.144c0.012-0.013,0.154-0.139,0.165-0.151
			C48.59,92.528,48.815,92.525,49.041,92.523z"/>
	</g>
	<g>
		<path fill-rule="evenodd" clip-rule="evenodd" fill="#A81815" d="M47.384,133.077c0.097,0.132,0.211,0.441,0.319,0.598
			c0.031-0.036,0.062-0.073,0.092-0.108c-0.031-0.097-0.248-0.579-0.344-0.797c-0.355,0.076-0.812,0.151-1.167,0.228
			c-1.831,2.098-3.634,4.211-5.416,6.34c0.028,0.093,0.107,0.208,0.136,0.299c1.145-1.361,3.616-4.316,5.416-6.378
			C46.702,133.192,47.088,133.145,47.384,133.077z"/>
	</g>
	<g>
		<path fill-rule="evenodd" clip-rule="evenodd" fill="#A81815" d="M109.714,127.165c0.068,0.127,0.174,0.328,0.24,0.453
			c0.055-0.023,0.095-0.035,0.16-0.061c-0.141-0.276-0.284-0.549-0.427-0.826c-2.543-1.354-5.093-2.667-7.655-3.937
			c-0.26,0.067-0.517,0.134-0.773,0.202c0.053,0.155,0.093,0.295,0.14,0.435c0.208-0.06,0.486-0.104,0.691-0.158
			C104.651,124.547,107.173,125.811,109.714,127.165z"/>
	</g>
	<g>
		<path fill-rule="evenodd" clip-rule="evenodd" fill="#A81815" d="M111.487,112.084c0.131,0.103,0.482,0.357,0.611,0.461
			c0.067-0.088,0.079-0.116,0.167-0.232c-0.233-0.187-0.466-0.373-0.697-0.559c-2.377-0.345-4.754-0.64-7.131-0.884
			c-0.141,0.141-0.279,0.285-0.421,0.428c0.049,0.043,0.094,0.088,0.144,0.141c0.063-0.066,0.197-0.187,0.248-0.234
			C106.786,111.449,109.112,111.739,111.487,112.084z"/>
	</g>
	<g>
		<path fill-rule="evenodd" clip-rule="evenodd" fill="#A81815" d="M103.085,100.347c0.018-0.142,0.024-0.208,0.048-0.37
			c-0.242-0.104-0.483-0.208-0.723-0.312c-1.756,0.242-3.509,0.532-5.258,0.864c-0.032,0.151-0.062,0.306-0.093,0.458
			c0.04,0.022,3.592-0.7,5.335-0.937C102.585,100.129,102.896,100.264,103.085,100.347z"/>
	</g>
	<g>
		<path fill-rule="evenodd" clip-rule="evenodd" fill="#A81815" d="M87.683,133.077c-0.098,0.132-0.211,0.441-0.317,0.598
			c-0.033-0.036-0.063-0.073-0.095-0.108c0.031-0.097,0.248-0.579,0.344-0.797c0.355,0.076,0.814,0.151,1.169,0.228
			c1.828,2.098,3.634,4.211,5.416,6.34c-0.04,0.1-0.077,0.196-0.121,0.299c-1.146-1.362-3.629-4.315-5.43-6.377
			C88.363,133.192,87.978,133.145,87.683,133.077z"/>
	</g>
	<path fill-rule="evenodd" clip-rule="evenodd" fill="#A81815" d="M68.547,137.353l0.171,7.038l-0.013-7.299
		c-0.259-0.182-0.613-0.358-0.871-0.538c-0.262,0.18-0.64,0.357-0.902,0.538l0.001,7.299l0.167-7.041
		c0.212-0.141,0.526-0.283,0.734-0.424C68.04,137.067,68.342,137.212,68.547,137.353z"/>
	<path fill-rule="evenodd" clip-rule="evenodd" fill="#C8411B" d="M32.471,110.978c3.177-14.186,22.851-18.402,35.189-18.402
		c12.34,0.003,32.015,4.218,35.192,18.405c3.956,17.657-22.401,24.231-35.189,24.231C54.874,135.212,28.515,128.636,32.471,110.978z
		 M33.759,110.877C36.748,97.17,55.781,93.105,67.66,93.105c11.881,0,30.914,4.067,33.903,17.772
		c3.7,16.959-21.609,23.231-33.9,23.231C55.373,134.106,30.06,127.836,33.759,110.877z"/>
	<path fill-rule="evenodd" clip-rule="evenodd" fill="#FFFFFF" d="M32.583,111.414c3.177-14.187,22.031-18.478,35.19-18.478
		c13.115,0,32.012,4.292,35.192,18.48c3.957,17.655-22.4,24.23-35.19,24.23C54.987,135.646,28.628,129.068,32.583,111.414z
		 M33.872,111.311c2.988-13.708,22.022-17.773,33.901-17.773c11.88,0.002,30.913,4.07,33.904,17.775
		c3.7,16.959-21.61,23.229-33.902,23.229C55.484,134.542,30.173,128.271,33.872,111.311z"/>
	<path opacity="0.45" fill="#4F2644" d="M109.784,114.338l-5.77-0.874l-0.765-0.176c-0.969-0.202-2.817-1.245-3.623-2.488
		c-0.805-1.245-2.748-3.386-3.809-4.718c-1.474-1.851-4.831-3.542-5.321-4.305c-0.49-0.761-1.299-2.101-1.525-2.627
		c-0.223-0.531-0.749-0.962-1.619-0.907c-0.87,0.053-0.946,0.352-1.689,0.397c-0.743,0.045-1.786-0.113-1.786-0.113
		c-0.453-0.094-0.768-0.15-1.082-0.15c-0.461,0.766-1.167,1.234-2.88,1.234c-0.121,0-0.218-0.014-0.3-0.037
		c0.177,0.38,1.774,0.607,2.044,0.591c0.273-0.017,1.78,0.407,2.123,0.47c0.692,0.127,0.559-0.112,1.671,0.529
		c1.842,1.064,4.598,3.996,5.145,6.541c0.302,1.407,2.714,3.705,3.002,4.999c-3.225-0.239-7.513-2.375-7.513-2.375l-0.537-0.258
		c0,0-1.917-0.967-4.854-1.101c-5.55-0.499-7.653-1.237-8.207-1.424c-1.144-0.383-0.985-0.579-1.917-0.624
		c-0.177-0.01-0.345-0.018-0.504-0.025c-0.105,0.213-0.259,0.424-0.479,0.636c-1.031,0.986-1.74,1.722-2.604,3.057
		c-0.233,0.358-0.626,0.584-1.1,0.71c1.06-0.242,3.13-0.798,3.13-0.798c1.955-0.26,4.937,0.612,4.937,0.612
		c1.098,0.224,2.914,0.929,2.914,0.929s7.903,2.416,9.84,3.825c1.273,0.929,7.844,3.385,9.586,3.988
		c1.742,0.601,5.985,2.915,5.985,2.915c1.088,0.929,7.435,3.705,9.177,4.287c2.24-3.883,3.021-7.847,2.396-11.872l-0.002-0.001
		L109.784,114.338z"/>
	<path opacity="0.45" fill="#4F2644" d="M106.875,107.765c-0.561-0.006-1.201,0.143-1.201,0.143l-1.57,0.931
		c-0.197,0.327,0.513,0.749,0.513,0.749s1.988,0.13,1.983,0.647c1.463,0.776,4.575,0.869,6.167,0.948v-0.003
		c-0.209-0.534-0.445-1.071-0.706-1.602c-0.251-0.511-0.528-1.016-0.822-1.512h-0.003
		C111.145,108.037,109.945,107.7,106.875,107.765z"/>
	<path opacity="0.45" fill="#4F2644" d="M95.141,127.124c0,0-0.375-0.483-2.391-0.489c-1.279-0.001,0.555,3.021,0.555,3.021
		c1.152,0.771,5.306,1.955,6.171,2.069c0.866,0.113,3.763,0.979,3.763,0.979s1.51,0.2,3.058,0.669
		c0.245-0.227,0.486-0.453,0.721-0.682c0.894-0.879,1.7-1.772,2.421-2.679c-3.504-0.072-8.476-0.132-12.252-2.102
		C96.803,126.784,95.141,127.124,95.141,127.124z"/>
	<path fill="#FAB650" d="M84.5,72.079c0,0-1.166-1.058-1.184-1.12c-0.085-0.373,0.329-0.868,0.428-1.49
		c-0.121-0.044-0.242-0.1-0.355-0.151c-0.285-1.073-0.517-3.012,0-4.047c0.251-0.506,0.551-1.17,0.38-1.763
		c-0.962-3.291-2.864-6.162-4.208-9.285c-0.364-0.849-0.303-1.458-0.356-2.327c-1.038-1.141-2.239-4.136-2.818-5.986
		c-1.209,3.059-2.013,6.574-2.013,7.386c0,3.443,3.49,5.111,2.282,10.833c-0.235,1.103-0.65,2.63-1.063,4.207
		c0.723,3.986,0.723,6.883,1.791,11.501c1.494,1.476,2.741,3.372,3.404,5.775c0.409,1.488,1.667,4.984,3.27,5.511
		c0.993,0.323-3.372,1.124-4.611-0.426c-1.189-1.491-3.245-2.682-4.219-4.269c-0.775-1.265-1.983-3.959-2.745-5.236l-0.933,4.901
		c1.27,5.236,0.511,6.393-0.617,10.64c-0.489,1.836-4.194-6.749-4.199-7.418c0-1.867-0.119-2.557-0.555-4.196
		c-0.777-1.517-0.692-3.663-0.588-5.294c0.179-2.729,0.156-7.874,0.275-9.228c-0.936-2.297-3.33-6.446-3.569-8.781
		c-0.372-3.64,0.242-7.322-0.265-10.949c-0.625,1.817-1.288,4.122-2.7,5.512c-2.116,2.087-4.069,4.398-5.958,6.684
		c-0.689,0.941-0.079,1.402-1.147,2.905c-1.048,1.483-0.486,0.815-0.705,2.229c-0.04,0.246-0.161,0.438-0.243,0.521
		c-0.562,0.472-1.158,0.875-1.963,0.537c-1.558-0.782-1.669-1.937-1.776-3.425c-0.205-2.839,1.896-2.975,3.086-4.692
		c2.335-3.375,3.517-9.034,6.018-11.581c0.157-0.506,0.742-2.321,1.861-5.025c0.033-3.36,0.863-6.346,4.316-7.727
		c1.414-0.562,3.27-0.708,3.338-2.663c0.009-0.236-0.039-0.835-0.189-1.046c-0.569-0.464-0.968-0.474-1.244-0.799
		c-0.559-0.718-1.022-5.337-0.96-5.633c0.813-3.918,2.686-5.224,5.06-5.107c2.808,0.14,5.033,1.489,4.912,5.259
		c-0.098,3.035-3.231,6.93,1.458,8.407c1.79,0.562,2.131,0.173,3.67,1.721c1.728,1.734,2.146,4.814,2.435,7.67l1.759,4.085
		c3.228,5.432,2.061,7.148,3.247,12.679c0.308,1.431,0.836,2.696,0.949,5.823C87.311,68.695,86.129,72.023,84.5,72.079z"/>
	<linearGradient id="SVGID_5_" gradientUnits="userSpaceOnUse" x1="51.9844" y1="52.8545" x2="86.1721" y2="87.0423">
		<stop  offset="0" style="stop-color:#2D2C86"/>
		<stop  offset="1" style="stop-color:#282674"/>
	</linearGradient>
	<path fill="url(#SVGID_5_)" d="M50.86,67.98c0.146-1.449-0.063-1.326,0.859-2.667c0.858-1.246,0.445-1.88,1.203-2.951
		c1.862-2.324,3.62-4.672,5.709-6.797c1.398-1.422,3.297-6.2,3.745-7.877c0.085-0.247,0.219-0.368,0.277-0.156
		c0.292,3.201,0.745,5.872,0.63,9.02c-0.237,6.609-0.057,5.917,2.69,12.088c0.229-2.481,0.829-6.084,2.277-7.302
		c-1.69,6.432-1.793,15.6-1.971,18.422c-0.091,1.436-0.482,3.702,0.207,5.025c0.231,0.894,0.248,2.242,0.268,3.267
		c0.004,0.622,0.043,11.283,0.043,11.283l-0.988,4.948c-0.355,1.43-2.199,3.831-3.559,4.578c-0.434,0.238-1.451,0.781-1.451,1.266
		c0,0.782,5.041,2.243,6.189,0.464c0.863-1.335,1.573-2.071,2.604-3.057c1.586-1.521-0.173-3.084,0.036-5.142
		c0.364-3.585,1.906-6.698,2.413-10.085c0.304-2.035,0.251-3.833-0.678-6.158l0.669-6.47c0.742,1.118,1.442,2.889,2.15,4.365
		c1.258,2.62,1.277,2.876,3.453,5.025c0.733,0.723,1.49,1.582,2.042,2.458c1.022,1.625,1.728,3.237,1.637,5.177
		c-0.755,1.367-1.081,1.281-2.048,2.108c0.032,0.046-0.268,0.8,0.652,0.8c3.277,0,2.872-1.713,4.111-3.932
		c0.801-1.438,3.1-3.617,0.579-4.372c-0.792-0.239-1.536-0.713-1.995-1.479c-1.75-2.922-1.816-2.846-2.725-5.536
		c-0.549-1.627-1.668-2.942-2.992-4.01c-0.809-1.837-1.129-3.139-1.389-5.089c-0.352-2.641-0.594-4.535-1.042-7.235
		c1.281-5.071,1.937-6.145-0.239-11.023c-0.499-1.124-0.782-2.316-0.782-3.64c0-1.622,0.893-5.264,1.759-7.151
		c0.302-0.768,0.727-1.488,1.324-1.72c0.528,1.968,2.346,6.014,3.401,7.003c0.064,0.796,0.033,1.597,0.346,2.349
		c1.33,3.191,3.242,6.09,4.195,9.455c0.328,1.154-0.109,1.713-0.439,2.645c-0.1,0.45-0.128,1.745,0.071,2.708l0.455,0.246
		c-0.078,0.293-0.282,1.108-0.442,1.484c0.059,0.456,0.619,0.717,0.619,0.717c0.731-0.164,1.774-2.809,1.738-3.864
		c-0.113-3.236-0.795-4.685-0.984-5.649c-1.079-5.488-0.457-6.995-3.528-12.304l-1.748-4.317c-0.216-2.211-1.096-7.255-3.927-8.163
		c-0.478-0.15-0.956-0.18-1.674-0.412c-3.706-1.201-3.695-4.047-2.685-7.157c0.899-2.763,1.018-6.026-3.052-6.371
		c-2.521-0.211-3.283,1.772-3.821,4.058c0.017,0.249,0.142,3.958,0.691,4.755c1.077,0.804,1.681,0.567,1.613,2.573
		c-0.059,1.684-1.128,2.678-2.583,3.189c-2.368,0.834-3.579,1.321-4.376,3.763c-0.253,0.767-0.467,1.869-0.473,3.512l0,0.111
		c-0.676,1.677-1.529,3.6-2.046,5.403c-2.916,2.92-4.361,9.57-7.314,12.38c-1.96,1.867-2.553,1.983-1.833,4.861
		c0.072,0.291,1.011,1.041,1.211,1.146C50.086,68.602,50.865,68.143,50.86,67.98z"/>
</g>
</svg>
